<svg id="a5930ec2-1f99-463f-972e-f52b7fb4db7a" data-name="Layer 1" xmlns="http://www.w3.org/2000/svg" viewBox="0 0 1920 1080"><defs><style>.b7f24493-ae18-41e9-9139-55ff90dfb2cc,.b9721486-89ce-45bb-b95c-838888dba8d3{fill:#fff;}.b04c4055-1c71-4d44-91fb-a7afb785ef34,.b7f24493-ae18-41e9-9139-55ff90dfb2cc,.b9721486-89ce-45bb-b95c-838888dba8d3{stroke:#73b5e5;stroke-miterlimit:10;}.b04c4055-1c71-4d44-91fb-a7afb785ef34,.b9721486-89ce-45bb-b95c-838888dba8d3{stroke-width:15px;}.bb78ed07-a671-4af3-b283-2bf4b6e877df{fill:#73b5e5;}.b04c4055-1c71-4d44-91fb-a7afb785ef34{fill:none;}.b7f24493-ae18-41e9-9139-55ff90dfb2cc{stroke-width:13px;}</style></defs><title>background</title><rect class="b9721486-89ce-45bb-b95c-838888dba8d3" x="935.5" y="274.63" width="49" height="445" rx="24.5"/><rect class="b9721486-89ce-45bb-b95c-838888dba8d3" x="960.5" y="303.63" width="49" height="466" rx="24.5"/><rect class="b9721486-89ce-45bb-b95c-838888dba8d3" x="911.5" y="302.63" width="49" height="466" rx="24.5"/><rect class="b9721486-89ce-45bb-b95c-838888dba8d3" x="643" y="859.69" width="634" height="57.44" rx="16.3"/><rect class="bb78ed07-a671-4af3-b283-2bf4b6e877df" x="418" y="909.13" width="916" height="16.24" rx="8.12"/><rect class="bb78ed07-a671-4af3-b283-2bf4b6e877df" x="1397" y="909.13" width="230" height="16.24" rx="8.12"/><rect class="bb78ed07-a671-4af3-b283-2bf4b6e877df" x="293" y="909.13" width="80" height="16.24" rx="8.12"/><rect class="b9721486-89ce-45bb-b95c-838888dba8d3" x="691" y="802.57" width="538" height="57.44" rx="16.3"/><rect class="b9721486-89ce-45bb-b95c-838888dba8d3" x="745.5" y="745.13" width="429" height="57.44" rx="16.3"/><rect class="b9721486-89ce-45bb-b95c-838888dba8d3" x="794.5" y="620.32" width="331" height="82.31" rx="16.3"/><circle class="b9721486-89ce-45bb-b95c-838888dba8d3" cx="959.5" cy="262.63" r="11"/><line class="b04c4055-1c71-4d44-91fb-a7afb785ef34" x1="959.5" y1="154.63" x2="959.5" y2="251.63"/><path class="b7f24493-ae18-41e9-9139-55ff90dfb2cc" d="M1571.88,874.52c0-.55.08-1.11.08-1.67a19.85,19.85,0,1,0-39.69,0c0,.16,0,.33,0,.49h-3.38a26,26,0,0,0-36.24-1.16,20.1,20.1,0,0,0-38,1.71,22.09,22.09,0,0,0-17.18,21.53h0a22.09,22.09,0,0,0,22.08,22.08h105.18a22.08,22.08,0,0,0,22.08-22.08h0A22.08,22.08,0,0,0,1571.88,874.52Z"/><path class="b7f24493-ae18-41e9-9139-55ff90dfb2cc" d="M575.46,893.85c0-.31,0-.62,0-.93a10.92,10.92,0,1,0-21.84,0v.28h-1.85a14.34,14.34,0,0,0-19.95-.64,11.06,11.06,0,0,0-20.9.94,12.15,12.15,0,0,0-9.46,11.85h0a12.15,12.15,0,0,0,12.15,12.15h57.89a12.15,12.15,0,0,0,12.16-12.15h0A12.15,12.15,0,0,0,575.46,893.85Z"/><rect class="bb78ed07-a671-4af3-b283-2bf4b6e877df" x="794" y="653.13" width="107" height="16.24" rx="8.12"/><rect class="bb78ed07-a671-4af3-b283-2bf4b6e877df" x="923" y="653.13" width="43" height="16.24" rx="8.12"/><rect class="bb78ed07-a671-4af3-b283-2bf4b6e877df" x="743" y="766.13" width="107" height="16.24" rx="8.12"/><rect class="bb78ed07-a671-4af3-b283-2bf4b6e877df" x="1135" y="766.13" width="43" height="16.24" rx="8.12"/><rect class="bb78ed07-a671-4af3-b283-2bf4b6e877df" x="1082" y="823.13" width="152" height="16.24" rx="8.12"/><rect class="bb78ed07-a671-4af3-b283-2bf4b6e877df" x="690" y="823" width="53" height="16.37" rx="8.12"/></svg>