<svg xmlns="http://www.w3.org/2000/svg" viewBox="0 0 295 123"><defs><style>.f595f9b2-b9a6-446a-8996-00e935bfa3f6{fill:#fff;}.a536e170-2621-47af-b348-80b160edec78{fill:#73b5e5;}</style></defs><title>cloud-1</title><g id="bec508bd-77c8-415a-8bef-81a088a79c8c" data-name="cloud-1"><path class="f595f9b2-b9a6-446a-8996-00e935bfa3f6" d="M258.82,55.63H242.57a38.59,38.59,0,0,0-64.1,0h-2.53c0-.44,0-.89,0-1.34a28.5,28.5,0,0,0-39.09-26.47A54.32,54.32,0,0,0,40.11,55.63h-4A30.18,30.18,0,0,0,5.94,85.82h0A30.18,30.18,0,0,0,36.12,116h222.7A30.18,30.18,0,0,0,289,85.82h0A30.18,30.18,0,0,0,258.82,55.63Z"/><path class="a536e170-2621-47af-b348-80b160edec78" d="M258.82,122.5H36.12a36.68,36.68,0,0,1-1.59-73.33A60.82,60.82,0,0,1,139,20.31a35,35,0,0,1,41.67,23,45.08,45.08,0,0,1,65.15,5.84h13a36.69,36.69,0,0,1,0,73.37ZM36.12,62.13a23.69,23.69,0,0,0,0,47.37h222.7a23.69,23.69,0,0,0,0-47.37H239.1l-1.93-2.88a32.08,32.08,0,0,0-53.3,0l-1.93,2.88H169.13l.32-6.8c0-.34,0-.69,0-1A22,22,0,0,0,139.3,33.85l-4.52,1.81-3-3.83A47.83,47.83,0,0,0,46.57,56.31L46,62.13Z"/></g></svg>