<svg xmlns="http://www.w3.org/2000/svg" viewBox="0 0 232 103"><defs><style>.b0f148ac-4fae-4bc2-9994-4dd7ac7ad3f9{fill:#fff;}.b9733c9c-4594-4c77-aef5-d76a4796e651{fill:#73b5e5;}</style></defs><title>cloud-2</title><g id="bf213431-4997-4d23-8a32-78a8366f4c15" data-name="cloud-2"><path class="b0f148ac-4fae-4bc2-9994-4dd7ac7ad3f9" d="M199.57,43.36A44.35,44.35,0,0,0,122.74,22a25.06,25.06,0,0,0-31,18,32.54,32.54,0,0,0-48.69,3.42H32.82a26.33,26.33,0,0,0,0,52.65H199.29a26.32,26.32,0,0,0,.28-52.64Z"/><path class="b9733c9c-4594-4c77-aef5-d76a4796e651" d="M199.29,102.5H32.82a32.83,32.83,0,0,1,0-65.65H40a39.07,39.07,0,0,1,49.06-7.18,31.58,31.58,0,0,1,31.44-14.81,50.85,50.85,0,0,1,84.29,22.47,32.82,32.82,0,0,1-5.53,65.17ZM32.82,49.85a19.83,19.83,0,0,0,0,39.65H199.29a19.82,19.82,0,0,0,.21-39.64l-5.36-.06-1-5.27A37.85,37.85,0,0,0,127.6,26.26l-2.69,3L121,28.21a18.85,18.85,0,0,0-4.94-.67,18.56,18.56,0,0,0-18,14l-2.79,11L87.2,44.57a26,26,0,0,0-39,2.74l-1.95,2.54Z"/></g></svg>